<mxfile host="65bd71144e">
    <diagram id="A-p1LqiuYu_JDwPrORON" name="Menentukan Nilai Terbesar">
        <mxGraphModel dx="784" dy="1663" grid="1" gridSize="10" guides="1" tooltips="1" connect="1" arrows="1" fold="1" page="1" pageScale="1" pageWidth="850" pageHeight="1100" math="0" shadow="0">
            <root>
                <mxCell id="0"/>
                <mxCell id="1" parent="0"/>
                <mxCell id="y109b2JvpPF_murlGFoc-1" value="&lt;div style=&quot;text-align: left;&quot;&gt;&lt;span style=&quot;background-color: initial;&quot;&gt;1.Mulai&lt;/span&gt;&lt;/div&gt;&lt;div style=&quot;text-align: left;&quot;&gt;2.Buat variabel x &amp;amp; y&lt;/div&gt;&lt;div style=&quot;text-align: left;&quot;&gt;3.Berikan nilai angka pada x &amp;amp; y&lt;/div&gt;&lt;div style=&quot;text-align: left;&quot;&gt;4.Jika x lebih besar dari y maka&lt;/div&gt;&lt;div style=&quot;text-align: left;&quot;&gt;6.output x&lt;/div&gt;&lt;div style=&quot;text-align: left;&quot;&gt;7.jika y lebih besar dari x maka&lt;/div&gt;&lt;div style=&quot;text-align: left;&quot;&gt;8.output y&lt;/div&gt;&lt;div style=&quot;text-align: left;&quot;&gt;6.Selesai&lt;/div&gt;" style="text;html=1;align=center;verticalAlign=middle;resizable=0;points=[];autosize=1;strokeColor=none;fillColor=none;" parent="1" vertex="1">
                    <mxGeometry x="265" y="-940" width="190" height="130" as="geometry"/>
                </mxCell>
                <mxCell id="f38S5QdkikOm7Vpv6nIv-1" value="&lt;span style=&quot;color: rgb(255, 255, 255); font-family: Helvetica; font-size: 12px; font-style: normal; font-variant-ligatures: normal; font-variant-caps: normal; font-weight: 400; letter-spacing: normal; orphans: 2; text-align: center; text-indent: 0px; text-transform: none; widows: 2; word-spacing: 0px; -webkit-text-stroke-width: 0px; background-color: rgb(42, 37, 47); text-decoration-thickness: initial; text-decoration-style: initial; text-decoration-color: initial; float: none; display: inline !important;&quot;&gt;Menentukan Nilai Terbesar Antara x &amp;amp; y&lt;/span&gt;" style="text;whiteSpace=wrap;html=1;" parent="1" vertex="1">
                    <mxGeometry x="250" y="-980" width="240" height="40" as="geometry"/>
                </mxCell>
            </root>
        </mxGraphModel>
    </diagram>
    <diagram id="bx4ekZMoWjv773WeuP-c" name="Ganjil Genap">
        <mxGraphModel dx="784" dy="563" grid="1" gridSize="10" guides="1" tooltips="1" connect="1" arrows="1" fold="1" page="1" pageScale="1" pageWidth="850" pageHeight="1100" math="0" shadow="0">
            <root>
                <mxCell id="0"/>
                <mxCell id="1" parent="0"/>
                <mxCell id="uK4I54hB5DHPe8wflSwb-1" value="1.Mulai&lt;br&gt;2.Buat variabel x&lt;br&gt;3.Berikan nilai angka pada x&lt;br&gt;4.Periksa apakah nilai x habis dibagi 2 (%)&lt;br&gt;5.&quot;Jika&quot; iya, maka tampilkan &quot;x bilangan genap&quot;&lt;br&gt;6.&quot;Jika&quot; tidak, maka tampilkan &quot;x bilangan ganjil&quot;&lt;br&gt;7.selesai" style="text;html=1;align=left;verticalAlign=middle;resizable=0;points=[];autosize=1;strokeColor=none;fillColor=none;" parent="1" vertex="1">
                    <mxGeometry x="415" y="145" width="280" height="110" as="geometry"/>
                </mxCell>
                <mxCell id="IOzHzQEe1Yg6wQelgGP5-1" value="&lt;span style=&quot;color: rgb(255, 255, 255); font-family: Helvetica; font-size: 12px; font-style: normal; font-variant-ligatures: normal; font-variant-caps: normal; font-weight: 400; letter-spacing: normal; orphans: 2; text-align: center; text-indent: 0px; text-transform: none; widows: 2; word-spacing: 0px; -webkit-text-stroke-width: 0px; background-color: rgb(42, 37, 47); text-decoration-thickness: initial; text-decoration-style: initial; text-decoration-color: initial; float: none; display: inline !important;&quot;&gt;Menentukan apakah bilangan ganjil atau genap&lt;/span&gt;" style="text;whiteSpace=wrap;html=1;" vertex="1" parent="1">
                    <mxGeometry x="415" y="105" width="290" height="40" as="geometry"/>
                </mxCell>
            </root>
        </mxGraphModel>
    </diagram>
</mxfile>